<mxfile host="app.diagrams.net" modified="2024-02-07T13:50:59.828Z" agent="Mozilla/5.0 (Windows NT 10.0; Win64; x64) AppleWebKit/537.36 (KHTML, like Gecko) Chrome/121.0.0.0 Safari/537.36" version="23.1.1" etag="djjo8hw7_aDJKl-OrGl8" type="github">
  <diagram name="Sivu-1" id="jnTGCVqpwLCDKtb_9UQs">
    <mxGraphModel>
      <root>
        <mxCell id="0" />
        <mxCell id="1" parent="0" />
      </root>
    </mxGraphModel>
  </diagram>
</mxfile>
